<svg width="607" height="572" viewBox="0 0 607 572" fill="none" xmlns="http://www.w3.org/2000/svg">
<path d="M470 394H474L476 398L474 400L473 406H475V408L480 409V411L491 412L495 418V422L491 423V426H489V434L498 435V438L508 440V442H517L525 443H529H532V441L535 438L537 432L540 436L544 437V435L548 434V438L553 440V444L548 450L544 456H542L540 462L536 467L527 481L526 483H524L523 487L520 493L517 496L514 502H512L510 508V517L513 524L514 535L513 544H515V547H519V549H521L522 556L516 555H512L508 552L499 550L490 546L489 544L480 543L476 540L473 533L468 530V528L457 526L452 521L443 520V522H441L440 525L434 523L435 517L433 515V510H431V501L429 494L427 489L419 487L420 484L425 483V481L427 480V476L421 475V473H419L420 464L423 463L424 458H420V456L418 455L419 444L422 443V437L425 434L434 429L439 424L445 421L447 418L449 416L450 411L457 410L458 401L460 399L468 396L470 394Z" fill="#005E91"/>
<path d="M271 369H282L283 373L295 375V377H300V375H302L306 379V381H308L311 385L313 390L317 391V389H320L322 392L329 394L327 398H325L326 408H332V411H334L332 416L331 418H327L328 422L337 426L333 428L322 431V432H317V430H313L312 438L304 442L303 449L306 450L305 453H303L302 456L297 458L296 465L291 468L289 479L294 482V486H292L293 491L300 493L301 497L308 498V504L310 509L307 510L305 514L300 516L299 519L296 522L295 526L287 527L285 528L284 517L278 518L275 503L274 501L268 500L262 496L260 478L248 476H242L240 472L233 469V467H231L230 465V459L238 458L242 457V453L250 452L253 451V444H251L249 434L251 429L254 428L255 421L263 420V418H266V410L260 409L256 405V403L259 402L260 396L261 390L265 386L266 382L267 373L268 371H271V369Z" fill="#005E91"/>
<path d="M342 424H345V426L358 428L361 434V444L364 449V455H367V457L372 456L375 454L378 453L389 452L392 451V449L396 446L410 445V443H413V454L412 460L416 461L414 468V476L421 478L417 482L414 483V489L416 491L423 493L425 496L426 511L427 516H429L430 520H421V522L413 521L411 529L406 534L403 532L397 530L395 526H379L373 525L365 528L364 532L358 533L354 539H352L351 543H342L339 544L337 537L336 525H325L321 519L320 511L319 507L315 506V504L313 503H316L315 497L308 494H305L303 489L298 488V481L297 477L294 476L295 471L300 467V461L307 458L311 453H313V447H309L311 443L315 441L317 435L323 436L325 434L335 433L341 429H344L342 424Z" fill="#005E91"/>
<path d="M524 254H530L540 256L546 259V264H553L556 269V274L554 275L552 280L550 284H552L554 291H552V293H550L549 299L550 303H552L554 319L556 320V322L559 323L558 340L563 342L564 348L570 350L571 357L575 359L578 362L580 373L585 378L584 382V391L586 397H589V405H588L587 415L584 421L570 422L569 427L565 429L563 433L557 438V436L554 435L552 428L546 429L542 432L541 429L534 428L529 438L524 439L515 438V436H509L508 429L494 430L495 426H503V421L499 420V412L495 410L484 407L483 404L480 403V394L476 390H468L463 393L460 392L458 387L456 381L455 370L454 369V351L455 340L456 335L457 326L452 320H445L444 316L455 315L457 310L458 303L456 302L463 300L462 291H458L457 282L463 279L468 278V277L480 276H487L491 274L500 276V269L512 270L516 266L518 263L523 261L524 254Z" fill="#005E91"/>
<path d="M370 348H374L376 355L386 356V362H401L404 363L405 364L409 363V369H414V371H424V373L433 374L437 371H441V369L444 370L450 372L452 375V387H454L455 389V404L454 406L446 407L444 415L435 422L428 428L423 430H420L418 435L412 436V438L407 440L395 441L388 447L377 448L372 451L370 450L371 445H366L368 444L367 435L364 431L362 424H360V422H349L341 421H334L337 416L340 415L341 409L339 407L338 403L329 402L333 401V397L335 396V391L333 389L335 387L337 375L344 381H348V379H350L351 370L350 366H347V361L353 359L364 358L365 356H370V348Z" fill="#005E91"/>
<path d="M300 247L304 248L313 253L314 255L319 256L320 258L334 257L338 255V257L344 258V265H346L350 269L357 271L356 274L352 275L353 280L355 281L354 288L355 289L371 288L375 292L381 294V301L383 310L375 309L369 307V309L365 311L366 316L368 317L370 322V329L375 331L374 335L369 340L368 342H366V344L364 345V350L357 349V353L345 357H343V364L340 366V371L333 370L332 382L331 385L327 386V389H325V386H323V384H315L314 380L310 376L307 373V371H305V369H300L299 372L290 371L284 366L281 362L277 361L276 365L271 364V366H265L263 361L258 360L254 361L249 359L238 357L237 356V346L234 345V340L238 337L239 332L241 333V337L248 335L251 330V320L250 315L253 314V305L255 299L259 297H267L271 295L273 290V282L272 276L278 273H283V271L286 270L285 266V262L292 261L294 259V254H292V252H290L291 249H297L300 247Z" fill="#005E91"/>
<path d="M425 141H431L432 142L433 151H429L432 160L435 165L437 172L444 173L446 179L448 180L449 185H452V187H454V196L463 197L466 195L469 196L470 202L472 203V205L479 204V221H481L489 236V239L496 241L509 243H515L516 246L524 248L523 250H520L518 256L513 257V262L511 266L504 265L495 263V269L491 268L486 266V272L483 273L482 272L470 273L469 274L459 276L453 278V283L455 288L454 291H452L453 295L459 296L455 298L450 299L452 305L454 306V308L450 309V312L447 311H440L439 312V320L440 324H450V326H452V328H454L452 332H447V339L448 342L450 343L448 347L450 349V364L449 367L444 365H439L432 367L431 370L428 369V367L414 366L412 356L410 354L406 353V359L399 357L397 358H391L388 350L383 349L380 352L376 343L373 341L376 340L377 337H379V328L376 325V320H374V318L372 317L371 313L379 314V316H384V314L388 313L387 302L385 300L386 293L383 291V289L376 287L372 285V283H366V285H360L362 284L363 279L359 278V266L352 265L350 263L349 258L348 254L342 253V250L332 249L330 253L325 252V254H322V251L317 252L316 248H314V246H309L305 243V238L309 234V227L312 225L313 222H311L310 218L311 214L315 211H317L314 204L313 201H315L316 194H314L316 189L325 191L324 184L322 177L323 173L332 171L334 168L335 170L353 172H365L366 162L370 161L380 160L382 155L389 154L394 150L404 149L409 146L418 145L423 144V142L425 141Z" fill="#005E91"/>
<path d="M498 48L505 49L507 51V54H509V56H516L518 60L528 61L530 64V69H532L535 74L533 80V90L536 91L538 95L539 107L542 115L545 123L547 127L550 135V138H552L554 148H556V151H558L561 157L564 159V162H562L563 173L565 180V206L560 211L548 216L542 220H540V222L536 226L535 230H533L532 236L529 245L520 243L518 239L500 238L493 235L491 228H489L485 218L483 217V204H485L483 200H474V191L465 190L462 191V193L457 192L456 183L452 181L455 178V174L448 171L445 169L440 168L436 158V155H440V148H438L436 141L450 140L452 135L463 133L470 127L475 121L481 119L482 115L487 113L489 110H491V107H494L495 100H497L498 95V88L497 84H495L494 79L489 77L487 75V66L483 65V60L490 59L497 55H499L498 48Z" fill="#005E91"/>
<path d="M328 49H335L340 50V52H350L352 53L366 54L394 55L415 57H438L464 54L475 53L477 52H492L493 50V53L480 56V58H478L480 68L483 71V78L490 83L493 88V96L491 101L487 102L486 108L480 111H478L477 115L473 116L467 123L462 128L458 130H449V133H447V136L444 137H424L419 140H410L406 144L403 145H395L389 147L388 150L379 152L377 157H363V168H353L352 167L338 166L336 160H331V163H329L328 165L327 158L325 150H323V148L311 146L308 141L304 140H301V132H299L298 124L300 118L304 115L305 108L316 110V97L317 91L309 93L308 91L307 86L303 84L301 80V74L304 73V67L309 66L311 62L319 56L326 53L328 49Z" fill="#005E91"/>
<path d="M204 364H212L213 369L230 370L231 366L238 365L248 367V369L253 370V372H259V384L254 389L253 394H251V400L250 402V414L255 415V417L246 418V422L241 424L240 427H242L243 433L241 434V439L243 441V447H239V449H237V451H234V454H226V456H224L221 469L216 471L210 463L209 459L213 458V439L201 440V442L194 443V445H192V440H187L186 436H181L180 433H177L176 429L166 427L170 426L171 421H173V418H181L182 412H184V406L182 404V401H186L188 396L191 391L193 386L198 382H203V373L201 372L203 371L204 364Z" fill="#FECC04"/>
<path d="M111 299H113V301H116L117 309L122 313V315L128 316V313H130L132 307L134 304H136V302L141 303L145 305V316L152 317L153 321L158 323L161 326L163 327L182 326L184 325L185 321L194 322L197 325H194L195 333L196 334V340L207 342L208 355H198V357H196V365L194 375H190L189 379L188 381H183V387H181V392L177 393V395H175V400H173L172 409L175 411L164 412V418L163 420H161V422L156 424H153V437L154 442H156L158 446L151 447V449H148L146 454L142 455L139 454L137 443H134V441L128 439L127 438V429L121 428V425L130 423V421H132L131 406H128L126 400H114V402H107V397L101 398L99 393L85 391L82 389V387L72 386V380L68 379L67 370L64 368V366L54 367L52 366L51 363V356L53 347H55V339L53 338L54 334L58 333H72V326L81 327V329H90V327L92 326L94 320H100L101 316H103L102 306L106 304L107 302L110 301L111 299Z" fill="#FECC04"/>
<path d="M236 117H239V121L242 122L259 123V125H267L270 130L275 131L291 132L293 137L295 148L296 149L304 150V154L314 155L319 157V170L315 173L314 181H316V184L309 186L307 193H306L305 199L307 200L304 201V209H307V211L305 212L304 216H299V224L302 225L300 226V232L302 233L299 235L298 243L296 244H288L287 241L280 239V243L273 244L271 239L267 238L266 234L254 232V228H245L244 232H239L237 230H236V224H231V222L224 221L220 217L209 216V212H201V210L199 209L202 208V191L198 189V187H193L192 182L193 175H195V172H193V169H198V166H200V156H198L197 152L193 151V149H195V144L197 143L198 140H200V133H206L207 136H212L213 133L222 131L223 123H225V119H227V121H235L236 117Z" fill="#FECC04"/>
<path d="M162 132L168 134L169 136L172 137H183L189 139L187 140V145L184 144V153L188 155V157H190L189 162L185 164V178L184 188L185 192L190 193V195H194L195 200L194 202H190L191 215H194V218L201 219L206 223H214L217 226V228L224 229L230 231L233 237V240H247L248 238V240H256L262 242L264 244L266 251L270 253V255H277V253L282 252V257L280 259H277L276 268H274V270H265V286H267L265 292L264 294H250L249 298L246 299V306L245 311L241 313V317L243 318L244 322V330H241L239 327L233 326L232 336H227V354H230V357L227 359L226 362H223V357H221V355L217 353L216 347V339L217 335H215L214 333L207 332V335H204V331H206L205 320L203 319V316H198V314H193L192 312H181L178 313V317L168 316V319H165L164 317L160 316L158 310H153L152 309V299L147 297V295L142 294L139 293L137 283L132 282H121L120 271H114L112 268V265H110V263H106V249L108 247L109 238H107V233L109 227H107L105 220V216L103 215V213H105V210H112V201L116 196L118 191L117 187L116 182L137 180L139 168L142 166L147 165L148 161L154 160V158L161 157L162 152L158 148L150 146L148 142H155V140L160 138L161 133L162 132Z" fill="#FECC04"/>
<path d="M106 176H109V191L108 195H104V202L97 201V209L96 213V216L95 220H97L98 225L97 227H95V236H97L99 241L102 243L99 244V271L104 272L105 279L114 280L113 282H111V288H108L106 292L103 295L102 297L97 298V302H95V311L87 312L86 320L80 319V317L66 316L65 324L55 325L52 326L50 323V320L43 319V317L40 316V302L35 297V287L39 280L41 272L40 259L39 248L37 243H35V240H33V233L35 229H37V213L45 211L46 204L51 203L53 196H65L68 195V193L74 192L76 186L84 185V183H86V186H95V184L101 185V183L105 181L106 176Z" fill="#FECC04"/>
<path d="M229 14H249L250 23L253 26V31H255L257 36V47H259V51L262 52L264 54V57H270L272 58V60L282 61L283 60H292V62H294L296 67L295 72L294 80L295 88L297 90V93L300 94L302 99L308 101V103H299L298 114L293 115L292 122H286V124H278L277 122V115L263 116L261 115H247L246 110H232L230 111H219L218 116L213 117L212 124H210V126H207L206 122L195 121L194 129L192 130L175 129L173 127L172 117V113L175 112V92L170 91V86H168V80H166V71H164L166 66L168 65L169 57V38L171 35L179 33V31H182V29L187 27L188 25H192V23L197 22V20L215 18L223 15L229 14Z" fill="#FECC04"/>
<path d="M155 39H157L158 45L162 46L163 49H161L160 60L154 62V72L157 74L159 83L158 95H164L163 99L162 102H160V107H162L163 109L164 120L161 121L160 123L156 124V126H153L152 132L151 133H140V150H146L145 154L141 156L140 159L134 161L133 162L132 169L130 173L124 175H118L117 174L116 165L103 164V169L98 171L97 173H95V176L91 174H82L79 176H76V178H66V185L63 189H57V185H48V191L46 195L44 196H38L36 204L38 205L37 206H29L28 203H26V200H24V197L20 195L18 191H15L14 188L15 180H19L20 176H23L25 172L26 166H28V157L30 155L31 151H33V146H31L29 141L28 127H26V115L32 118V120L42 122H45L44 115H42L40 107L45 106V99L44 95L41 93L35 91V89L42 87V85L56 83L65 80L76 76H81V74H89V72L102 71V69L114 66L125 64L131 62H133V60L138 57L141 52H143L145 46L148 45L149 41L155 39ZM138 135V148H139V135H138Z" fill="#FECC04"/>
</svg>
